<svg width="211" height="64" viewBox="0 0 211 64" fill="none" xmlns="http://www.w3.org/2000/svg">
<path d="M71.2482 30.5348C72.8358 30.5348 74.2097 30.7903 75.3705 31.3014C76.548 31.8124 77.4521 32.5378 78.0837 33.4776C78.7152 34.4173 79.0313 35.5301 79.0313 36.816C79.0313 38.0854 78.7152 39.1982 78.0837 40.1544C77.4521 41.0941 76.548 41.8195 75.3705 42.3308C74.2097 42.8251 72.8358 43.0725 71.2482 43.0725H67.6388V47.8453H63.4918V30.5348H71.2482ZM71.0182 39.8082C72.2635 39.8082 73.2111 39.5527 73.8595 39.0416C74.5084 38.514 74.8323 37.7722 74.8323 36.816C74.8323 35.8433 74.5084 35.1014 73.8595 34.5904C73.2111 34.0628 72.2635 33.799 71.0182 33.799H67.6388V39.8082H71.0182Z" fill="#81818B"/>
<path d="M84.2451 36.2967C84.7223 35.6537 85.3628 35.1674 86.1645 34.8377C86.984 34.5079 87.9222 34.3431 88.9806 34.3431V37.9041C88.5369 37.8711 88.2382 37.8547 88.0844 37.8547C86.9409 37.8547 86.0453 38.1679 85.3969 38.7944C84.748 39.4043 84.4236 40.3276 84.4236 41.5639V47.8454H80.4304V34.541H84.2451V36.2967Z" fill="#81818B"/>
<path d="M96.5038 48.0429C95.0533 48.0429 93.7476 47.7547 92.5873 47.1774C91.4439 46.5841 90.5477 45.7678 89.8993 44.7292C89.251 43.6906 88.9265 42.5118 88.9265 41.1931C88.9265 39.8742 89.251 38.6954 89.8993 37.6568C90.5477 36.6182 91.4439 35.8104 92.5873 35.2334C93.7476 34.6399 95.0533 34.3431 96.5038 34.3431C97.9544 34.3431 99.2517 34.6399 100.395 35.2334C101.539 35.8104 102.435 36.6182 103.084 37.6568C103.732 38.6954 104.056 39.8742 104.056 41.1931C104.056 42.5118 103.732 43.6906 103.084 44.7292C102.435 45.7678 101.539 46.5841 100.395 47.1774C99.2517 47.7547 97.9544 48.0429 96.5038 48.0429ZM96.5038 44.8776C97.5281 44.8776 98.3644 44.5482 99.0128 43.8885C99.6785 43.2127 100.011 42.3143 100.011 41.1931C100.011 40.072 99.6785 39.1818 99.0128 38.5223C98.3644 37.8464 97.5281 37.5084 96.5038 37.5084C95.4801 37.5084 94.6354 37.8464 93.9697 38.5223C93.304 39.1818 92.9711 40.072 92.9711 41.1931C92.9711 42.3143 93.304 43.2127 93.9697 43.8885C94.6354 44.5482 95.4801 44.8776 96.5038 44.8776Z" fill="#81818B"/>
<path d="M122.163 30.5348V47.8453H118.758L109.823 37.3353V47.8453H105.727V30.5348H109.157L118.067 41.0447V30.5348H122.163Z" fill="#81818B"/>
<path d="M130.396 34.3431C132.529 34.3431 134.168 34.8377 135.311 35.8269C136.455 36.7996 137.026 38.2751 137.026 40.2534V47.8454H133.289V46.1883C132.538 47.4248 131.139 48.0429 129.091 48.0429C128.032 48.0429 127.11 47.8701 126.325 47.5238C125.558 47.1774 124.969 46.6996 124.559 46.0894C124.15 45.4795 123.945 44.7869 123.945 44.0122C123.945 42.7757 124.423 41.8031 125.378 41.0942C126.351 40.3853 127.845 40.0308 129.859 40.0308H133.033C133.033 39.19 132.769 38.5471 132.239 38.1019C131.71 37.6403 130.917 37.4095 129.859 37.4095C129.125 37.4095 128.399 37.5249 127.683 37.7557C126.983 37.9701 126.385 38.2668 125.89 38.646L124.457 35.9505C125.208 35.4394 126.103 35.0438 127.144 34.7635C128.203 34.4833 129.287 34.3431 130.396 34.3431ZM130.089 45.4466C130.772 45.4466 131.377 45.2982 131.906 45.0013C132.435 44.6879 132.811 44.2348 133.033 43.6411V42.2813H130.294C128.655 42.2813 127.836 42.8004 127.836 43.839C127.836 44.3338 128.032 44.7292 128.425 45.0261C128.834 45.3064 129.389 45.4466 130.089 45.4466Z" fill="#81818B"/>
<path d="M148.244 47.2021C147.852 47.4825 147.365 47.6969 146.785 47.8453C146.222 47.9768 145.624 48.0428 144.993 48.0428C143.355 48.0428 142.083 47.6392 141.179 46.8315C140.291 46.0234 139.847 44.8363 139.847 43.2704V37.8052H137.723V34.8377H139.847V31.5981H143.841V34.8377H147.271V37.8052H143.841V43.2209C143.841 43.7812 143.986 44.2183 144.276 44.5316C144.583 44.8281 145.01 44.9765 145.556 44.9765C146.188 44.9765 146.725 44.8116 147.169 44.4822L148.244 47.2021Z" fill="#81818B"/>
<path d="M163.082 34.541V47.8454H159.293V46.2626C158.764 46.8394 158.132 47.2847 157.398 47.598C156.664 47.8949 155.871 48.0429 155.017 48.0429C153.208 48.0429 151.775 47.5403 150.716 46.5347C149.658 45.5291 149.129 44.037 149.129 42.0588V34.541H153.123V41.4898C153.123 43.6329 154.053 44.7045 155.913 44.7045C156.869 44.7045 157.637 44.408 158.218 43.8143C158.797 43.2045 159.088 42.3061 159.088 41.119V34.541H163.082Z" fill="#81818B"/>
<path d="M169.316 36.2967C169.793 35.6537 170.434 35.1674 171.236 34.8377C172.055 34.5079 172.994 34.3431 174.052 34.3431V37.9041C173.608 37.8711 173.309 37.8547 173.156 37.8547C172.012 37.8547 171.116 38.1679 170.468 38.7944C169.819 39.4043 169.495 40.3276 169.495 41.5639V47.8454H165.501V34.541H169.316V36.2967Z" fill="#81818B"/>
<path d="M188.513 41.2427C188.513 41.2918 188.488 41.6381 188.436 42.2813H178.017C178.204 43.1055 178.648 43.7565 179.348 44.2348C180.048 44.7127 180.918 44.9518 181.959 44.9518C182.676 44.9518 183.307 44.8529 183.853 44.655C184.417 44.441 184.937 44.1111 185.415 43.6658L187.54 45.8915C186.243 47.3259 184.348 48.0429 181.856 48.0429C180.304 48.0429 178.93 47.7547 177.735 47.1774C176.54 46.5841 175.619 45.7678 174.97 44.7292C174.321 43.6906 173.997 42.5118 173.997 41.1931C173.997 39.8907 174.313 38.7202 174.945 37.6816C175.593 36.6264 176.472 35.8104 177.581 35.2334C178.708 34.6399 179.962 34.3431 181.345 34.3431C182.693 34.3431 183.913 34.6234 185.006 35.1839C186.098 35.7444 186.951 36.5522 187.566 37.6074C188.197 38.646 188.513 39.8577 188.513 41.2427ZM181.37 37.2611C180.466 37.2611 179.706 37.5084 179.092 38.003C178.477 38.4976 178.102 39.1736 177.965 40.0308H184.75C184.613 39.19 184.237 38.5223 183.623 38.0277C183.009 37.5167 182.258 37.2611 181.37 37.2611Z" fill="#81818B"/>
<path fill-rule="evenodd" clip-rule="evenodd" d="M40.748 20.8946C40.1395 20.5545 39.3893 20.5545 38.7808 20.8946C34.4588 23.3096 31.5437 27.8282 31.5437 33.0068C31.5437 33.7449 31.603 34.4695 31.717 35.1767C28.7418 34.2006 25.5203 34.5558 22.889 36.0204C22.2799 36.3594 21.9048 36.987 21.9054 37.6661C21.9085 41.2485 23.835 44.7399 27.2853 46.6641C28.978 47.6083 30.8256 48.0569 32.6479 48.0577C32.3707 48.8167 32.2198 49.6331 32.2198 50.4837C32.2198 54.5086 35.5976 57.771 39.7641 57.771C43.9309 57.771 47.3084 54.5086 47.3084 50.4837C47.3084 49.631 47.1568 48.813 46.8785 48.0528C48.5923 48.0004 50.3184 47.551 51.9079 46.6641C55.3586 44.7399 57.2848 41.2485 57.2874 37.6662C57.2885 36.9872 56.9131 36.3596 56.3041 36.0205C53.7767 34.6136 50.7042 34.2305 47.8291 35.0677C47.932 34.3951 47.9849 33.707 47.9849 33.0068C47.9849 27.8282 45.0701 23.3096 40.748 20.8946ZM35.4724 33.0068C35.4724 29.644 37.1581 26.6597 39.7644 24.8021C42.3707 26.6597 44.0564 29.644 44.0564 33.0068C44.0564 36.3696 42.3707 39.3539 39.7644 41.2115C37.1581 39.3539 35.4724 36.3696 35.4724 33.0068ZM47.5115 39.3087C49.3256 38.297 51.4217 38.1793 53.2528 38.8195C52.9115 40.6714 51.7576 42.3659 49.9436 43.3776C48.1296 44.3894 46.0334 44.5069 44.2024 43.867C44.5438 42.0149 45.6975 40.3205 47.5115 39.3087ZM25.9405 38.8194C27.7715 38.1792 29.8676 38.2969 31.6816 39.3086C33.4958 40.3203 34.6493 42.0149 34.9909 43.8666C33.1598 44.5069 31.0638 44.3894 29.2497 43.3776C27.4356 42.3659 26.2821 40.6712 25.9405 38.8194ZM36.1485 50.4837C36.1485 48.5549 37.7673 46.991 39.7641 46.991C41.7609 46.991 43.3798 48.5549 43.3798 50.4837C43.3798 52.4124 41.7609 53.9763 39.7641 53.9763C37.7673 53.9763 36.1485 52.4124 36.1485 50.4837Z" fill="#81818B"/>
</svg>
