<svg width="211" height="64" viewBox="0 0 211 64" fill="none" xmlns="http://www.w3.org/2000/svg">
<path d="M29.8756 28.03C32.0298 26.0681 34.9549 24.923 37.9195 24.7805C38.9342 24.7805 39.9518 24.7863 40.9665 24.7776C40.9147 25.8153 40.9665 26.8557 40.936 27.8934C40.7928 30.2128 39.8939 32.4798 38.3796 34.2993C36.4113 36.7466 33.4009 38.3887 30.2047 38.8131C28.8092 39.0281 27.3923 38.8915 25.9877 38.9293C26.0121 37.787 25.9359 36.642 26.0304 35.5026C26.3046 32.6775 27.7032 29.9715 29.8756 28.03Z" fill="#81818B"/>
<path d="M41.9061 24.7776C42.9939 24.7892 44.0816 24.7718 45.1724 24.7834C47.8872 24.9665 50.5655 25.9605 52.6098 27.6841C54.8645 29.5297 56.4096 32.1689 56.8054 34.9882C56.9792 36.296 56.8695 37.6185 56.9367 38.9322C55.9859 38.9293 55.0383 38.9264 54.0875 38.9322C51.7507 38.8712 49.4533 38.1504 47.4972 36.9355C46.5953 36.3193 45.669 35.6944 44.9926 34.8399C43.5088 33.2588 42.5002 31.2736 42.1194 29.181C41.8329 27.7277 41.9487 26.2454 41.9061 24.7776Z" fill="#81818B"/>
<path d="M25.9898 39.7634C26.9557 39.8157 27.9246 39.7198 28.8874 39.8215C33.0099 39.9058 37.0106 42.1147 39.1464 45.4776C40.3714 47.361 41.0295 49.5933 40.9442 51.8107C40.9411 52.5378 40.9533 53.2613 40.932 53.9853C39.4024 53.9412 37.8576 54.0603 36.3432 53.7784C32.9795 53.2382 29.8869 51.3283 28.0251 48.6021C26.6144 46.6198 25.9106 44.1987 25.9837 41.8067C25.9837 41.1236 25.9837 40.4435 25.9898 39.7634Z" fill="#81818B"/>
<path d="M51.7884 40.0714C53.446 39.7196 55.1548 39.7778 56.8401 39.7778L56.9136 39.8476C56.8768 41.3677 57.0018 42.9052 56.6821 44.4078C56.0085 47.7794 53.6686 50.7903 50.5209 52.4441C48.5617 53.4849 46.3131 53.9963 44.0736 53.9732C43.3576 53.9763 42.6385 53.9616 41.9225 53.9816C41.9225 52.7232 41.8676 51.4592 42.0169 50.2061C42.3643 47.1748 44.0827 44.3526 46.5538 42.446C48.0833 41.295 49.8811 40.4608 51.7884 40.0714Z" fill="#81818B"/>
<path d="M69.4217 48.3555C69.4217 48.8672 69.2359 49.3 68.8652 49.6544C68.514 49.9891 68.0704 50.1564 67.5344 50.1564C67.0183 50.1564 66.5852 49.9891 66.2345 49.6544C65.8838 49.3 65.7084 48.8672 65.7084 48.3555V30.1119C65.7084 29.6002 65.8838 29.1771 66.2345 28.8426C66.6056 28.4883 67.0598 28.3112 67.5963 28.3112C68.1323 28.3112 68.5654 28.4883 68.8957 28.8426C69.2464 29.1771 69.4217 29.6002 69.4217 30.1119V48.3555Z" fill="#81818B"/>
<path d="M84.3275 34.3628C84.8636 34.3628 85.3072 34.5399 85.6584 34.8941C86.0086 35.2287 86.1839 35.6518 86.1839 36.1635V43.6617C86.1839 45.7478 85.5754 47.4009 84.3585 48.6211C83.141 49.8413 81.3875 50.4512 79.0969 50.4512C76.8074 50.4512 75.0534 49.8413 73.8365 48.6211C72.64 47.4009 72.0415 45.7478 72.0415 43.6617V36.1635C72.0415 35.6518 72.2168 35.2287 72.5675 34.8941C72.9182 34.5399 73.3618 34.3628 73.8984 34.3628C74.4349 34.3628 74.878 34.5399 75.2287 34.8941C75.58 35.2287 75.7553 35.6518 75.7553 36.1635V43.6617C75.7553 44.8622 76.0341 45.7576 76.5906 46.348C77.1476 46.9188 77.9834 47.2041 79.0969 47.2041C80.2325 47.2041 81.0778 46.9188 81.6353 46.348C82.1918 45.7576 82.4706 44.8622 82.4706 43.6617V36.1635C82.4706 35.6518 82.646 35.2287 82.9967 34.8941C83.3474 34.5399 83.791 34.3628 84.3275 34.3628Z" fill="#81818B"/>
<path d="M97.3533 34.0676C99.0039 34.0676 100.221 34.4514 101.005 35.2189C101.789 35.9668 102.305 36.9409 102.552 38.1414L102.026 37.8757L102.274 37.4034C102.521 36.9507 102.903 36.4686 103.419 35.9569C103.935 35.4255 104.554 34.9828 105.276 34.6285C106.018 34.2545 106.844 34.0676 107.751 34.0676C109.237 34.0676 110.361 34.3727 111.125 34.9827C111.909 35.5928 112.445 36.4095 112.734 37.4329C113.023 38.4366 113.167 39.5584 113.167 40.7982V48.3554C113.167 48.8672 112.992 49.3 112.641 49.6544C112.29 49.989 111.847 50.1564 111.31 50.1564C110.774 50.1564 110.33 49.989 109.98 49.6544C109.629 49.3 109.453 48.8672 109.453 48.3554V40.7982C109.453 40.1488 109.371 39.5683 109.206 39.0565C109.041 38.5251 108.742 38.102 108.308 37.7871C107.875 37.4723 107.256 37.3148 106.452 37.3148C105.668 37.3148 104.997 37.4723 104.44 37.7871C103.883 38.102 103.46 38.5251 103.171 39.0565C102.903 39.5683 102.769 40.1488 102.769 40.7982V48.3554C102.769 48.8672 102.593 49.3 102.243 49.6544C101.892 49.989 101.448 50.1564 100.912 50.1564C100.376 50.1564 99.9321 49.989 99.5819 49.6544C99.2307 49.3 99.0553 48.8672 99.0553 48.3554V40.7982C99.0553 40.1488 98.9729 39.5683 98.8075 39.0565C98.6427 38.5251 98.3434 38.102 97.9103 37.7871C97.4772 37.4723 96.8577 37.3148 96.0534 37.3148C95.2696 37.3148 94.5991 37.4723 94.0416 37.7871C93.4851 38.102 93.0619 38.5251 92.7732 39.0565C92.5049 39.5683 92.371 40.1488 92.371 40.7982V48.3554C92.371 48.8672 92.1957 49.3 91.845 49.6544C91.4938 49.989 91.0507 50.1564 90.5141 50.1564C89.9776 50.1564 89.5345 49.989 89.1832 49.6544C88.8325 49.3 88.6572 48.8672 88.6572 48.3554V36.1635C88.6572 35.6519 88.8325 35.2287 89.1832 34.8942C89.5345 34.5399 89.9776 34.3628 90.5141 34.3628C91.0507 34.3628 91.4938 34.5399 91.845 34.8942C92.1957 35.2287 92.371 35.6519 92.371 36.1635V37.4329L91.9064 37.3444C92.0923 37.0098 92.3506 36.6555 92.6803 36.2816C93.0105 35.888 93.4126 35.5239 93.8872 35.1893C94.3618 34.8548 94.8879 34.5891 95.4654 34.3923C96.0434 34.1758 96.6729 34.0676 97.3533 34.0676Z" fill="#81818B"/>
<path d="M119.136 48.3555C119.136 48.8672 118.961 49.3 118.609 49.6544C118.259 49.989 117.816 50.1564 117.279 50.1564C116.743 50.1564 116.299 49.989 115.948 49.6544C115.598 49.3 115.423 48.8672 115.423 48.3555V36.1635C115.423 35.6519 115.598 35.2287 115.948 34.8942C116.299 34.5399 116.743 34.3628 117.279 34.3628C117.816 34.3628 118.259 34.5399 118.609 34.8942C118.961 35.2287 119.136 35.6519 119.136 36.1635V48.3555ZM117.248 32.444C116.547 32.444 116.052 32.3358 115.762 32.1193C115.474 31.9028 115.33 31.519 115.33 30.968V30.4071C115.33 29.8364 115.485 29.4526 115.793 29.2558C116.124 29.0393 116.619 28.931 117.279 28.931C118.002 28.931 118.507 29.0393 118.795 29.2558C119.085 29.4723 119.229 29.856 119.229 30.4071V30.968C119.229 31.5387 119.074 31.9323 118.764 32.1488C118.456 32.3456 117.95 32.444 117.248 32.444Z" fill="#81818B"/>
<path d="M130.256 34.0676C131.783 34.0676 132.938 34.3727 133.722 34.9827C134.527 35.5928 135.073 36.4095 135.362 37.4329C135.672 38.4366 135.826 39.5584 135.826 40.7982V48.3554C135.826 48.8672 135.651 49.3 135.3 49.6544C134.95 49.989 134.506 50.1564 133.969 50.1564C133.433 50.1564 132.99 49.989 132.639 49.6544C132.288 49.3 132.112 48.8672 132.112 48.3554V40.7982C132.112 40.1488 132.02 39.5683 131.835 39.0565C131.669 38.5251 131.36 38.102 130.906 37.7871C130.452 37.4723 129.802 37.3148 128.956 37.3148C128.131 37.3148 127.429 37.4723 126.852 37.7871C126.295 38.102 125.862 38.5251 125.552 39.0565C125.263 39.5683 125.118 40.1488 125.118 40.7982V48.3554C125.118 48.8672 124.944 49.3 124.593 49.6544C124.242 49.989 123.798 50.1564 123.262 50.1564C122.725 50.1564 122.282 49.989 121.932 49.6544C121.58 49.3 121.405 48.8672 121.405 48.3554V36.1635C121.405 35.6519 121.58 35.2287 121.932 34.8942C122.282 34.5399 122.725 34.3628 123.262 34.3628C123.798 34.3628 124.242 34.5399 124.593 34.8942C124.944 35.2287 125.118 35.6519 125.118 36.1635V37.4329L124.655 37.3444C124.841 37.0098 125.108 36.6555 125.459 36.2816C125.81 35.888 126.223 35.5239 126.697 35.1893C127.172 34.8548 127.708 34.5891 128.306 34.3923C128.905 34.1758 129.555 34.0676 130.256 34.0676Z" fill="#81818B"/>
<path d="M154.2 42.2742C154.2 43.888 153.818 45.3149 153.055 46.5547C152.312 47.7749 151.301 48.7294 150.022 49.4181C148.763 50.1072 147.35 50.4512 145.782 50.4512C144.214 50.4512 142.79 50.1072 141.512 49.4181C140.253 48.7294 139.242 47.7749 138.479 46.5547C137.736 45.3149 137.365 43.888 137.365 42.2742C137.365 40.6605 137.736 39.2435 138.479 38.0233C139.242 36.7835 140.253 35.8191 141.512 35.1303C142.79 34.4218 144.214 34.0676 145.782 34.0676C147.35 34.0676 148.763 34.4218 150.022 35.1303C151.301 35.8191 152.312 36.7835 153.055 38.0233C153.818 39.2435 154.2 40.6605 154.2 42.2742ZM150.486 42.2742C150.486 41.2706 150.27 40.4046 149.836 39.6765C149.423 38.9286 148.856 38.3481 148.134 37.9348C147.433 37.5215 146.649 37.3148 145.782 37.3148C144.916 37.3148 144.121 37.5215 143.399 37.9348C142.698 38.3481 142.13 38.9286 141.697 39.6765C141.285 40.4046 141.078 41.2706 141.078 42.2742C141.078 43.2583 141.285 44.1242 141.697 44.8721C142.13 45.6002 142.698 46.1709 143.399 46.5842C144.121 46.9975 144.916 47.2041 145.782 47.2041C146.649 47.2041 147.433 46.9975 148.134 46.5842C148.856 46.1709 149.423 45.6002 149.836 44.8721C150.27 44.1242 150.486 43.2583 150.486 42.2742Z" fill="#81818B"/>
<path d="M168.041 34.3628C168.577 34.3628 169.021 34.5399 169.372 34.8941C169.722 35.2287 169.898 35.6518 169.898 36.1635V43.6617C169.898 45.7478 169.289 47.4009 168.072 48.6211C166.854 49.8413 165.101 50.4512 162.811 50.4512C160.521 50.4512 158.767 49.8413 157.55 48.6211C156.353 47.4009 155.755 45.7478 155.755 43.6617V36.1635C155.755 35.6518 155.93 35.2287 156.281 34.8941C156.632 34.5399 157.075 34.3628 157.612 34.3628C158.148 34.3628 158.592 34.5399 158.943 34.8941C159.293 35.2287 159.469 35.6518 159.469 36.1635V43.6617C159.469 44.8622 159.747 45.7576 160.304 46.348C160.861 46.9188 161.697 47.2041 162.811 47.2041C163.945 47.2041 164.792 46.9188 165.348 46.348C165.906 45.7576 166.184 44.8622 166.184 43.6617V36.1635C166.184 35.6518 166.36 35.2287 166.71 34.8941C167.061 34.5399 167.505 34.3628 168.041 34.3628Z" fill="#81818B"/>
<path d="M171.411 47.706C171.205 47.4305 171.112 47.0762 171.133 46.6433C171.154 46.2103 171.422 45.8364 171.938 45.5215C172.268 45.3247 172.618 45.246 172.99 45.2854C173.361 45.305 173.722 45.4821 174.073 45.8167C174.672 46.3874 175.301 46.8302 175.961 47.1451C176.621 47.46 177.446 47.6174 178.436 47.6174C178.746 47.5977 179.086 47.5584 179.458 47.4993C179.829 47.4206 180.149 47.2632 180.417 47.027C180.705 46.7712 180.85 46.3874 180.85 45.8757C180.85 45.4428 180.695 45.0983 180.386 44.8425C180.076 44.5867 179.664 44.3702 179.148 44.1931C178.653 44.016 178.096 43.8487 177.477 43.6912C176.837 43.5141 176.177 43.3173 175.496 43.1008C174.836 42.8844 174.227 42.6089 173.67 42.2742C173.114 41.92 172.66 41.4575 172.309 40.8868C171.958 40.3161 171.783 39.5977 171.783 38.7318C171.783 37.7478 172.071 36.9114 172.649 36.2226C173.227 35.5338 173.97 35.0024 174.877 34.6285C175.806 34.2545 176.775 34.0676 177.786 34.0676C178.426 34.0676 179.096 34.1463 179.798 34.3038C180.499 34.4415 181.17 34.6777 181.81 35.0123C182.449 35.3271 182.986 35.7503 183.419 36.2816C183.645 36.5768 183.78 36.931 183.821 37.3444C183.862 37.7576 183.666 38.1315 183.233 38.4661C182.924 38.7023 182.563 38.8105 182.15 38.7908C181.738 38.7515 181.397 38.6138 181.129 38.3776C180.778 37.9446 180.304 37.6002 179.705 37.3444C179.127 37.0885 178.457 36.9606 177.694 36.9606C177.384 36.9606 177.044 37 176.672 37.0787C176.322 37.1377 176.012 37.2854 175.744 37.5215C175.476 37.738 175.342 38.0922 175.342 38.5842C175.342 39.0369 175.496 39.4009 175.806 39.6765C176.115 39.9323 176.528 40.1488 177.044 40.3259C177.58 40.4834 178.148 40.6408 178.746 40.7982C179.365 40.9557 179.994 41.1426 180.634 41.3591C181.274 41.5757 181.861 41.8609 182.398 42.2152C182.934 42.5695 183.367 43.0319 183.697 43.6027C184.028 44.1537 184.192 44.8622 184.192 45.7281C184.192 46.7318 183.883 47.588 183.264 48.2964C182.645 49.0049 181.871 49.546 180.943 49.9201C180.015 50.2745 179.065 50.4512 178.096 50.4512C176.879 50.4512 175.662 50.2548 174.444 49.861C173.227 49.4476 172.216 48.7294 171.411 47.706Z" fill="#81818B"/>
</svg>
