<svg width="211" height="64" viewBox="0 0 211 64" fill="none" xmlns="http://www.w3.org/2000/svg">
<path d="M75.8865 51.566C73.5298 51.566 71.4466 51.0911 69.6369 50.1423C67.8267 49.1715 66.4276 47.8017 65.4385 46.0333C64.4499 44.2645 63.9554 42.1831 63.9554 39.7889C63.9554 37.3946 64.4499 35.3132 65.4385 33.5446C66.4276 31.7543 67.8267 30.3846 69.6369 29.4355C71.4466 28.4649 73.5298 27.9796 75.8865 27.9796C77.4862 27.9796 78.8958 28.1522 80.1165 28.4973C81.3581 28.8208 82.4942 29.3385 83.5253 30.0503V34.7416C82.5997 33.9651 81.5371 33.4043 80.3375 33.0592C79.1589 32.6925 77.8122 32.5092 76.2971 32.5092C74.8875 32.5092 73.6138 32.8112 72.4777 33.4151C71.3626 33.9975 70.4785 34.8387 69.8265 35.9387C69.1739 37.0387 68.8479 38.3221 68.8479 39.7889C68.8479 41.2772 69.1424 42.5821 69.7314 43.7037C70.342 44.8038 71.1941 45.6558 72.2882 46.2597C73.3823 46.8637 74.6454 47.1656 76.0761 47.1656C77.3807 47.1656 78.5168 46.9284 79.4849 46.4538V42.086H75.918V38.4623H84.1248V49.3657C82.0416 50.8324 79.2959 51.566 75.8865 51.566Z" fill="#81818B"/>
<path d="M85.2331 35.5505H89.8415V37.783C90.4521 37.028 91.3042 36.4564 92.3983 36.0682C93.4924 35.6583 94.7345 35.4535 96.1232 35.4535V39.1742C94.671 39.1742 93.3874 39.4006 92.2723 39.8536C91.1777 40.3066 90.4201 40.9968 89.9996 41.9243V51.0806H85.2331V35.5505Z" fill="#81818B"/>
<path d="M105.283 51.566C102.379 51.566 100.095 50.8539 98.4332 49.4302C96.7705 47.9855 95.9395 45.9685 95.9395 43.3802C95.9395 40.8134 96.676 38.7859 98.1492 37.2976C99.6433 35.8093 101.769 35.0652 104.525 35.0652C106.335 35.0652 107.871 35.4103 109.134 36.1005C110.396 36.7907 111.354 37.7506 112.006 38.98C112.659 40.1879 112.985 41.5576 112.985 43.089V45.0626H100.485C100.821 47.047 102.631 48.0394 105.914 48.0394C106.882 48.0394 107.882 47.953 108.913 47.7803C109.944 47.6078 110.838 47.3705 111.596 47.0686V50.4983C110.859 50.8214 109.912 51.0806 108.755 51.2749C107.598 51.4686 106.44 51.566 105.283 51.566ZM108.471 41.8919C108.408 40.8566 108.029 40.0585 107.335 39.4977C106.64 38.9153 105.682 38.6241 104.462 38.6241C103.263 38.6241 102.316 38.9153 101.621 39.4977C100.927 40.0801 100.548 40.8781 100.485 41.8919H108.471Z" fill="#81818B"/>
<path d="M122.754 51.566C119.851 51.566 117.567 50.8539 115.905 49.4302C114.242 47.9855 113.411 45.9685 113.411 43.3802C113.411 40.8134 114.147 38.7859 115.621 37.2976C117.115 35.8093 119.24 35.0652 121.997 35.0652C123.806 35.0652 125.343 35.4103 126.606 36.1005C127.868 36.7907 128.825 37.7506 129.477 38.98C130.13 40.1879 130.456 41.5576 130.456 43.089V45.0626H117.956C118.293 47.047 120.103 48.0394 123.386 48.0394C124.354 48.0394 125.354 47.953 126.384 47.7803C127.415 47.6078 128.31 47.3705 129.067 47.0686V50.4983C128.331 50.8214 127.384 51.0806 126.227 51.2749C125.069 51.4686 123.912 51.566 122.754 51.566ZM125.943 41.8919C125.879 40.8566 125.501 40.0585 124.807 39.4977C124.111 38.9153 123.154 38.6241 121.934 38.6241C120.734 38.6241 119.788 38.9153 119.093 39.4977C118.398 40.0801 118.02 40.8781 117.956 41.8919H125.943Z" fill="#81818B"/>
<path d="M131.514 35.5505H136.122V37.4594C136.817 36.6613 137.638 36.0682 138.585 35.6799C139.553 35.2701 140.563 35.0652 141.615 35.0652C143.678 35.0652 145.214 35.6368 146.223 36.7799C147.254 37.9016 147.771 39.4222 147.771 41.3419V51.0806H143.004V41.8919C143.004 39.8859 142.099 38.883 140.289 38.883C139.49 38.883 138.743 39.0879 138.048 39.4977C137.354 39.8859 136.764 40.4683 136.28 41.2448V51.0806H131.514V35.5505Z" fill="#81818B"/>
<path d="M151.975 33.1563C151.239 33.1563 150.619 32.9082 150.114 32.4121C149.608 31.916 149.356 31.2905 149.356 30.5356C149.356 29.8022 149.608 29.1875 150.114 28.6914C150.619 28.1737 151.239 27.9149 151.975 27.9149C152.712 27.9149 153.333 28.1737 153.838 28.6914C154.343 29.1875 154.596 29.8022 154.596 30.5356C154.596 31.2905 154.343 31.916 153.838 32.4121C153.333 32.9082 152.712 33.1563 151.975 33.1563ZM149.577 35.5505H154.375V51.0806H149.577V35.5505Z" fill="#81818B"/>
<path d="M162.504 51.566C161.368 51.566 160.147 51.4362 158.842 51.1775C157.559 50.9403 156.549 50.5952 155.812 50.1423V46.3244C156.654 46.8421 157.664 47.2627 158.842 47.5862C160.021 47.9096 161.115 48.0714 162.125 48.0714C162.988 48.0714 163.619 47.996 164.019 47.8452C164.418 47.6941 164.618 47.4137 164.618 47.0039C164.618 46.6803 164.503 46.4215 164.271 46.2274C164.04 46.0117 163.682 45.8283 163.198 45.6774C162.735 45.5048 161.956 45.2567 160.862 44.9332C159.579 44.5449 158.568 44.1567 157.832 43.7685C157.117 43.3586 156.57 42.8518 156.191 42.2478C155.833 41.6439 155.654 40.8673 155.654 39.9183C155.654 38.3005 156.274 37.0927 157.517 36.2946C158.779 35.475 160.483 35.0652 162.63 35.0652C163.682 35.0652 164.766 35.1838 165.881 35.4211C167.017 35.6368 167.891 35.928 168.501 36.2946V40.0154C167.891 39.6055 167.091 39.2712 166.102 39.0124C165.134 38.7536 164.187 38.6241 163.261 38.6241C162.398 38.6241 161.725 38.7104 161.241 38.883C160.778 39.0555 160.546 39.3791 160.546 39.8536C160.546 40.2634 160.767 40.5762 161.209 40.7919C161.672 41.0076 162.525 41.2772 163.766 41.6008L164.398 41.7625C165.723 42.1292 166.754 42.539 167.491 42.992C168.227 43.4233 168.743 43.9518 169.038 44.5773C169.353 45.1813 169.511 45.947 169.511 46.8744C169.511 48.2981 168.911 49.4411 167.712 50.3041C166.513 51.145 164.776 51.566 162.504 51.566Z" fill="#81818B"/>
<path d="M170.613 27.1708H175.379V37.33C176.095 36.575 176.905 36.0142 177.809 35.6476C178.715 35.2593 179.683 35.0652 180.714 35.0652C182.776 35.0652 184.312 35.6368 185.322 36.78C186.353 37.9016 186.869 39.4222 186.869 41.3419V51.0806H182.103V41.8919C182.103 39.886 181.198 38.883 179.388 38.883C178.588 38.883 177.842 39.0879 177.147 39.4977C176.452 39.886 175.863 40.4683 175.379 41.2448V51.0806H170.613V27.1708Z" fill="#81818B"/>
<path fill-rule="evenodd" clip-rule="evenodd" d="M47.6772 31.7486C47.6772 35.8583 44.4271 39.19 40.4175 39.19C36.4079 39.19 33.1575 35.8583 33.1575 31.7486C33.1575 27.6388 36.4079 24.3071 40.4175 24.3071C44.4271 24.3071 47.6772 27.6388 47.6772 31.7486ZM23.5302 38.6492C31.4398 38.1027 38.3332 44.1727 38.9753 52.2971C39.0418 53.1389 39.0386 53.97 38.9707 54.7848C31.0611 55.3313 24.1677 49.2612 23.5256 41.1368C23.4591 40.2949 23.4623 39.4637 23.5302 38.6492ZM44.0883 54.5002C52.0146 53.8419 57.9363 46.7764 57.4034 38.6691C56.6085 38.5995 55.7979 38.5962 54.9763 38.6644C47.05 39.3225 41.1282 46.3883 41.6614 54.4955C42.4561 54.5653 43.2669 54.5685 44.0883 54.5002Z" fill="#81818B"/>
</svg>
