<svg width="211" height="64" viewBox="0 0 211 64" fill="none" xmlns="http://www.w3.org/2000/svg">
<path d="M23.1739 45.1287L34.8335 40.0754L41.5445 43.8652L42.9002 56.2984L34.6301 56.2323L35.8503 47.5883L34.4267 46.7905L27.4445 52.1097L23.1739 45.1287Z" fill="#81818B"/>
<path d="M42.2906 43.3329L52.5945 50.7127L56.6616 43.5989L48.3913 40.341V38.7453L56.6616 35.4209L52.5945 28.3733L42.2906 35.7534V43.3329Z" fill="#81818B"/>
<path d="M41.5445 35.1553L42.9002 22.7222L34.6301 22.8552L35.8503 31.4984L34.4267 32.2963L27.3767 26.9773L23.1739 33.892L34.8335 38.945L41.5445 35.1553Z" fill="#81818B"/>
<path d="M84.2524 38.0202V49.6684H88.7034V34.8239H82.2217V38.0202H84.2524Z" fill="#81818B"/>
<path d="M84.1133 32.7382C84.5212 33.1535 85.1428 33.3611 85.9771 33.3611C86.8123 33.3611 87.424 33.1535 87.813 32.7382C88.2214 32.3046 88.4251 31.7628 88.4251 31.1129C88.4251 30.4446 88.2214 29.9028 87.813 29.4876C87.424 29.0542 86.8123 28.8374 85.9771 28.8374C85.1428 28.8374 84.5212 29.0542 84.1133 29.4876C83.7243 29.9028 83.5295 30.4446 83.5295 31.1129C83.5295 31.7628 83.7243 32.3046 84.1133 32.7382Z" fill="#81818B"/>
<path d="M68.7576 49.3431C70.0186 49.9028 71.5669 50.183 73.4028 50.183C75.128 50.183 76.6111 49.9207 77.8543 49.3973C79.097 48.8737 80.0519 48.1421 80.7192 47.203C81.4059 46.2459 81.7487 45.1354 81.7487 43.8712C81.7487 42.6433 81.4248 41.6049 80.7754 40.756C80.1443 39.8893 79.2639 39.2121 78.1325 38.7246C77.0012 38.2188 75.6934 37.9028 74.2097 37.7765L72.6521 37.6411C71.7249 37.5687 71.0571 37.325 70.6492 36.9095C70.2407 36.4943 70.037 36.0066 70.037 35.4469C70.037 35.0133 70.1489 34.6162 70.3704 34.255C70.5935 33.8757 70.9269 33.5778 71.3721 33.361C71.8362 33.1445 72.4016 33.036 73.0694 33.036C73.774 33.036 74.3583 33.1623 74.8219 33.4153C74.9237 33.4687 75.0209 33.5259 75.1117 33.5865L75.1337 33.6016C75.1678 33.6245 75.2015 33.6482 75.234 33.6722C75.5159 33.8818 75.7401 34.1302 75.9071 34.4175C76.1475 34.8149 76.2688 35.2572 76.2688 35.7449H80.7192C80.7192 34.4445 80.4131 33.3159 79.8015 32.3588C79.1899 31.3837 78.3089 30.6343 77.1592 30.1104C76.0273 29.5686 74.6644 29.2977 73.0694 29.2977C71.5485 29.2977 70.2318 29.5507 69.1188 30.0563C68.0063 30.544 67.1348 31.2482 66.5043 32.1691C65.8916 33.0901 65.5856 34.1828 65.5856 35.4469C65.5856 37.1986 66.1888 38.607 67.3942 39.6727C68.5996 40.7381 70.2134 41.3521 72.2347 41.5146L73.7651 41.65C75.0072 41.7584 75.9071 42.0023 76.4636 42.3813C77.0195 42.7425 77.2978 43.2391 77.2978 43.8712C77.2978 44.1617 77.249 44.4341 77.1513 44.6886C77.0789 44.8776 76.9791 45.0566 76.8531 45.2257C76.5554 45.6047 76.1202 45.9027 75.5453 46.1197C74.9704 46.3363 74.2565 46.4445 73.4028 46.4445C72.4573 46.4445 71.6876 46.3184 71.0944 46.0651C70.5006 45.7944 70.0559 45.4423 69.7583 45.0091C69.4805 44.5754 69.3419 44.1061 69.3419 43.6003H64.9183C64.9183 44.8825 65.2427 46.0204 65.8916 47.0133C66.5411 47.9887 67.496 48.7655 68.7576 49.3431Z" fill="#81818B"/>
<path d="M98.6348 49.8577C97.095 49.8577 95.8528 49.6774 94.9068 49.3158C93.9607 48.9369 93.2656 48.3136 92.8204 47.4469C92.3941 46.5618 92.1805 45.3703 92.1805 43.8712V37.9931H89.8715V34.8239H92.1805V30.8149H96.3253V34.8239H100.777V37.9931H96.3253V44.034C96.3253 44.7382 96.5112 45.2799 96.8818 45.6589C97.2714 46.0204 97.8184 46.2008 98.5235 46.2008H100.777V49.8577H98.6348Z" fill="#81818B"/>
<path fill-rule="evenodd" clip-rule="evenodd" d="M106.136 49.5328C107.137 49.9659 108.287 50.1829 109.585 50.1829C110.865 50.1829 111.997 49.9659 112.979 49.5328C113.962 49.0992 114.779 48.4943 115.427 47.718C116.076 46.9412 116.513 46.0562 116.735 45.0633H112.645C112.46 45.5148 112.108 45.8938 111.589 46.2007C111.069 46.5077 110.401 46.6616 109.585 46.6616C109.08 46.6616 108.628 46.603 108.23 46.4866C107.927 46.398 107.656 46.2759 107.415 46.1197C106.859 45.7586 106.451 45.2526 106.191 44.6027C106.119 44.4175 106.058 44.2239 106.006 44.0222C105.953 43.8178 105.91 43.6052 105.878 43.3838H117.013V41.9209C117.013 40.5665 116.716 39.3205 116.123 38.1828C115.529 37.0269 114.667 36.0969 113.536 35.3926C112.423 34.6703 111.051 34.3091 109.418 34.3091C108.176 34.3091 107.063 34.5259 106.08 34.9593C105.116 35.3746 104.309 35.9434 103.66 36.6658C103.011 37.3881 102.51 38.2099 102.157 39.1309C101.824 40.0337 101.657 40.9818 101.657 41.975V42.5168C101.657 43.4741 101.824 44.413 102.157 45.334C102.51 46.237 103.011 47.0584 103.66 47.799C104.327 48.5216 105.152 49.0992 106.136 49.5328ZM105.955 40.7052C105.967 40.6478 105.98 40.5914 105.994 40.5358C106.033 40.3826 106.077 40.2359 106.128 40.0956C106.156 40.0158 106.187 39.9379 106.219 39.8622C106.497 39.194 106.906 38.6884 107.443 38.3453C107.644 38.2171 107.862 38.1128 108.096 38.0326C108.49 37.898 108.931 37.8306 109.418 37.8306C110.179 37.8306 110.809 38.0022 111.31 38.3453C111.829 38.6703 112.219 39.1488 112.479 39.7809C112.5 39.8319 112.519 39.8838 112.539 39.9364C112.569 40.0201 112.598 40.1061 112.624 40.1942C112.664 40.3253 112.698 40.461 112.728 40.6012C112.75 40.7045 112.769 40.8104 112.786 40.9187H105.912C105.925 40.8463 105.939 40.7752 105.955 40.7052Z" fill="#81818B"/>
<path d="M118.85 49.6684V34.8238H122.383V38.5626C122.431 38.3403 122.486 38.127 122.546 37.9224C122.599 37.7501 122.655 37.5839 122.717 37.4243C123.106 36.4129 123.69 35.6546 124.469 35.1488C125.248 34.6251 126.203 34.3634 127.335 34.3634H127.529C128.68 34.3634 129.634 34.6251 130.395 35.1488C131.174 35.6546 131.758 36.4129 132.147 37.4243L132.178 37.5006L132.204 37.5704C132.222 37.5211 132.24 37.4725 132.258 37.4243C132.666 36.4129 133.26 35.6546 134.039 35.1488C134.818 34.6251 135.773 34.3634 136.905 34.3634H137.099C138.249 34.3634 139.213 34.6251 139.992 35.1488C140.79 35.6546 141.393 36.4129 141.8 37.4243C142.208 38.4356 142.413 39.6998 142.413 41.2166V49.6684H137.962V40.9728C137.962 40.1601 137.739 39.5011 137.294 38.9955C136.867 38.4897 136.255 38.2369 135.458 38.2369C134.66 38.2369 134.03 38.4988 133.566 39.0225C133.103 39.5281 132.871 40.2053 132.871 41.0542V49.6684H128.392V40.9728C128.392 40.1601 128.169 39.5011 127.724 38.9955C127.298 38.4897 126.694 38.2369 125.916 38.2369C125.1 38.2369 124.46 38.4988 123.997 39.0225C123.533 39.5281 123.301 40.2053 123.301 41.0542V49.6684H118.85Z" fill="#81818B"/>
<path fill-rule="evenodd" clip-rule="evenodd" d="M154.303 46.808V49.6685H157.835V40.5666C157.835 39.1941 157.557 38.0746 157.001 37.2076C156.444 36.3227 155.629 35.6636 154.553 35.2302C153.496 34.7969 152.188 34.5801 150.63 34.5801C150.293 34.5801 149.94 34.5835 149.573 34.5908C149.356 34.5951 149.133 34.6006 148.906 34.6072C148.293 34.6252 147.7 34.6523 147.125 34.6885L146.686 34.7173C146.46 34.7325 146.249 34.7476 146.049 34.7629C145.9 34.7742 145.757 34.7856 145.623 34.7969V38.4538C146.198 38.4176 146.838 38.3814 147.543 38.3454C147.74 38.3354 147.935 38.326 148.129 38.3173C148.409 38.3046 148.685 38.2937 148.959 38.2842C149.175 38.2765 149.389 38.2697 149.601 38.2641C150.269 38.246 150.807 38.237 151.215 38.237C152.03 38.237 152.624 38.4265 152.995 38.8059C153.366 39.1851 153.551 39.754 153.551 40.5125V40.5666H150.797C149.444 40.5666 148.247 40.7382 147.208 41.0814C146.17 41.4063 145.363 41.921 144.789 42.6253C144.213 43.3117 143.926 44.1965 143.926 45.2799C143.926 46.2733 144.158 47.131 144.621 47.8537C145.085 48.5575 145.725 49.0993 146.541 49.4783C147.376 49.8577 148.34 50.0475 149.434 50.0475C150.491 50.0475 151.382 49.8577 152.105 49.4783C152.847 49.0993 153.422 48.5575 153.83 47.8537C153.902 47.7346 153.968 47.6116 154.031 47.4836C154.119 47.3029 154.198 47.1127 154.267 46.9131L154.303 46.808ZM153.551 44.1695V42.9775H150.769C149.99 42.9775 149.388 43.167 148.961 43.5463C148.553 43.9075 148.349 44.4041 148.349 45.0361C148.349 45.3337 148.4 45.6039 148.501 45.8478C148.604 46.0921 148.757 46.3091 148.961 46.4988C149.388 46.8604 149.99 47.0406 150.769 47.0406C150.917 47.0406 151.061 47.0335 151.199 47.0196C151.312 47.008 151.422 46.9914 151.529 46.9704C151.732 46.9301 151.925 46.872 152.105 46.7968C152.513 46.6165 152.847 46.3185 153.106 45.9028C153.366 45.4876 153.515 44.9095 153.551 44.1695Z" fill="#81818B"/>
<path d="M160.499 49.6685V34.8239H164.033V39.7236C164.202 38.3249 164.628 37.1971 165.312 36.3409C166.24 35.2032 167.574 34.6344 169.318 34.6344H169.903V38.3725H168.79C167.566 38.3725 166.62 38.6974 165.952 39.3476C165.284 39.9797 164.95 40.9007 164.95 42.1105V49.6685H160.499Z" fill="#81818B"/>
<path d="M175.547 42.7336H177.021L181.834 49.6685H186.841L180.739 41.1518L185.756 34.8239H181.083L175.547 41.8822V29.8939H171.096V49.6685H175.547V42.7336Z" fill="#81818B"/>
</svg>
