<?xml version="1.0" standalone="no"?>
<!DOCTYPE svg PUBLIC "-//W3C//DTD SVG 20010904//EN"
 "http://www.w3.org/TR/2001/REC-SVG-20010904/DTD/svg10.dtd">
<svg version="1.0" xmlns="http://www.w3.org/2000/svg"
 width="2130.000000pt" height="370.000000pt" viewBox="0 0 2130.000000 370.000000"
 preserveAspectRatio="xMidYMid meet">

<g transform="translate(0.000000,370.000000) scale(0.100000,-0.100000)"
fill="#000000" stroke="none">
<path d="M1670 3679 c-209 -21 -429 -83 -617 -174 -124 -59 -312 -180 -381
-244 -24 -22 -50 -42 -57 -44 -7 -3 -60 -58 -119 -122 -377 -413 -557 -977
-476 -1493 27 -177 83 -370 148 -513 135 -298 320 -521 627 -757 40 -31 176
-109 258 -147 179 -85 333 -130 598 -174 219 -37 586 14 844 116 302 119 550
298 755 544 360 431 504 1005 388 1549 -83 393 -294 750 -597 1014 -378 329
-886 494 -1371 445z m372 -498 c62 -11 149 -32 193 -47 98 -32 239 -97 250
-114 5 -8 -19 -38 -67 -87 l-74 -74 -101 40 c-296 120 -588 115 -885 -14 -309
-134 -564 -455 -634 -800 -22 -106 -24 -315 -5 -413 53 -272 211 -526 429
-689 202 -151 425 -225 676 -224 305 1 567 112 788 332 135 136 231 301 285
493 30 110 42 335 24 456 -12 77 -69 257 -101 321 l-19 36 78 77 78 78 36 -64
c86 -155 136 -351 144 -569 7 -185 -9 -305 -64 -469 -131 -395 -447 -711 -844
-844 -144 -48 -231 -61 -414 -60 -202 0 -316 20 -476 83 -358 140 -638 426
-767 781 -64 174 -76 247 -77 450 0 251 30 389 132 598 257 528 832 822 1415
723z m788 9 c0 -13 29 -220 35 -246 4 -18 18 -22 140 -39 74 -10 135 -21 135
-24 0 -3 -85 -91 -188 -194 l-188 -187 -99 14 -100 14 -350 -349 c-249 -247
-357 -349 -373 -349 -30 0 -62 34 -62 67 0 23 59 87 346 374 l345 345 -17 98
-16 98 30 32 c279 284 348 353 355 355 4 0 7 -3 7 -9z m-766 -430 c77 -21 194
-73 249 -113 l29 -20 -77 -77 -77 -78 -73 34 c-143 66 -275 86 -410 61 -240
-44 -421 -181 -525 -398 -137 -285 -66 -617 176 -829 34 -30 99 -74 144 -97
447 -229 987 81 1017 583 7 117 -9 203 -59 323 l-40 94 76 76 c73 73 76 75 91
56 36 -44 97 -186 121 -280 23 -92 25 -113 21 -255 -4 -135 -8 -166 -32 -240
-102 -316 -335 -541 -643 -622 -125 -33 -360 -33 -477 0 -146 42 -280 116
-383 214 -27 26 -52 45 -56 43 -3 -3 -4 -2 -1 1 2 4 -18 34 -46 68 -61 75
-131 214 -161 321 -20 70 -23 102 -22 250 0 155 3 178 27 258 105 340 377 584
724 647 85 16 318 4 407 -20z m-69 -408 l49 -23 -80 -80 -80 -80 -74 -3 c-57
-2 -87 -9 -126 -29 -147 -75 -206 -250 -134 -395 55 -110 145 -166 265 -166
90 0 154 28 217 95 55 58 78 119 78 204 l0 60 80 80 c50 50 83 76 89 70 17
-18 39 -101 46 -170 21 -224 -108 -432 -325 -525 -84 -35 -233 -40 -332 -10
-127 38 -252 141 -311 255 -52 103 -64 276 -27 397 39 125 137 236 267 302 77
38 115 45 238 43 89 -2 119 -7 160 -25z"/>
<path d="M14315 3171 c-91 -23 -168 -55 -223 -92 -23 -16 -47 -29 -52 -29 -21
0 -141 -147 -178 -218 -107 -206 -88 -419 56 -632 105 -154 192 -219 467 -350
235 -112 281 -137 348 -188 101 -77 161 -166 192 -287 55 -216 -34 -350 -261
-390 -191 -34 -402 5 -488 91 -57 57 -67 96 -65 271 2 256 -33 333 -150 333
-33 0 -49 -7 -80 -36 -54 -49 -76 -107 -67 -184 27 -241 225 -472 475 -554
120 -40 219 -51 326 -37 134 19 406 79 509 112 216 71 337 182 401 368 17 50
20 193 4 261 -18 82 -104 240 -170 313 -90 100 -175 157 -514 348 -205 115
-299 190 -393 312 -113 148 -165 305 -131 394 13 34 55 80 91 99 90 47 313
-19 475 -141 115 -85 184 -192 222 -339 23 -91 38 -111 75 -102 47 12 51 42
21 147 -38 132 -87 220 -174 311 -108 115 -237 187 -391 223 -87 20 -238 18
-325 -4z m-115 -231 c0 -232 131 -444 394 -640 98 -72 117 -84 356 -217 74
-42 158 -92 185 -111 116 -82 214 -199 263 -314 23 -55 26 -77 27 -173 0 -100
-2 -115 -28 -166 -37 -75 -105 -141 -199 -189 -65 -34 -156 -69 -179 -70 -4 0
0 26 7 58 18 76 18 224 -1 297 -15 61 -68 173 -102 216 -76 99 -184 174 -383
265 -289 134 -405 205 -488 302 -119 140 -175 321 -142 463 29 125 129 262
230 315 25 12 48 23 53 24 4 0 7 -27 7 -60z m-200 -1470 c0 -62 -11 -140 -20
-140 -3 0 -17 19 -30 42 -30 53 -32 122 -6 163 l19 29 18 -23 c13 -15 19 -39
19 -71z"/>
<path d="M8481 3165 c-208 -47 -346 -132 -551 -336 -245 -245 -402 -600 -387
-874 17 -299 232 -689 469 -852 92 -63 133 -84 233 -116 150 -49 307 -60 485
-32 228 34 401 122 542 275 233 251 364 650 330 1010 -26 274 -97 436 -262
600 -159 159 -325 266 -480 310 -99 28 -289 36 -379 15z m392 -132 c217 -77
410 -249 527 -466 49 -91 76 -192 90 -332 33 -334 -117 -767 -342 -981 -116
-111 -312 -193 -467 -195 -94 -2 -132 27 -218 166 -157 254 -257 501 -299 740
-40 224 17 445 178 690 114 174 274 364 333 394 48 25 94 21 198 -16z m-422
-42 c-27 -33 -120 -172 -237 -356 -66 -104 -142 -262 -159 -330 -9 -33 -18
-99 -22 -146 -16 -235 103 -603 304 -940 16 -25 43 -70 60 -100 18 -30 33 -57
33 -61 0 -22 -188 30 -280 77 -136 70 -307 270 -399 466 -63 134 -84 231 -85
384 -1 189 35 326 125 483 99 171 205 288 389 426 147 111 161 120 230 142 78
26 90 14 41 -45z"/>
<path d="M11835 3165 c-184 -40 -355 -136 -490 -274 -27 -28 -52 -51 -56 -51
-3 0 -9 44 -11 98 -6 123 -24 167 -75 188 -44 19 -103 15 -318 -21 -159 -27
-172 -31 -179 -53 -9 -28 3 -1238 13 -1377 5 -71 15 -233 21 -360 12 -274 20
-322 59 -359 39 -37 138 -50 286 -37 176 15 175 14 195 431 14 311 18 350 36
350 8 0 34 -30 58 -67 48 -75 52 -82 190 -335 113 -208 160 -278 277 -413 156
-180 250 -258 379 -315 42 -18 115 -40 165 -48 83 -14 96 -14 166 2 190 42
359 182 359 297 0 73 -80 138 -156 126 -61 -10 -105 -50 -189 -174 l-80 -118
-71 1 c-63 1 -83 7 -165 46 -52 25 -112 60 -135 79 -22 19 -60 50 -84 69 -50
41 -145 160 -222 280 -54 83 -249 428 -261 463 -6 16 2 17 106 11 160 -9 317
26 452 101 27 15 54 32 59 36 98 77 129 105 173 160 63 77 134 216 163 319 32
114 38 298 12 420 -81 390 -349 597 -677 525z m262 -146 c78 -30 136 -70 184
-132 92 -116 123 -220 123 -417 1 -162 -9 -215 -60 -328 -88 -194 -272 -344
-475 -388 -108 -24 -250 -22 -322 4 -56 20 -152 89 -210 150 -26 27 -30 40
-39 138 -6 60 -11 206 -12 324 l-1 216 37 76 c37 73 69 108 193 211 80 65 194
124 297 151 83 23 216 20 285 -5z m-941 -61 c19 -738 13 -1476 -12 -1815 l-7
-83 -128 0 c-75 0 -129 4 -129 9 0 6 -5 65 -10 133 -24 295 -41 730 -47 1220
-5 449 -4 528 8 533 16 6 262 42 299 44 23 1 25 -3 26 -41z m1649 -2138 c8
-13 -18 -60 -52 -91 -31 -29 -112 -73 -120 -65 -10 9 51 127 75 147 26 20 86
26 97 9z"/>
<path d="M20211 3165 c-191 -43 -300 -103 -475 -262 -38 -35 -72 -63 -77 -63
-5 0 -9 43 -9 95 0 108 -13 150 -56 184 -27 21 -36 23 -109 17 -131 -10 -378
-55 -395 -71 -13 -13 -14 -84 -12 -533 3 -567 9 -724 61 -1447 11 -157 29
-169 248 -168 241 2 248 9 263 304 10 178 27 471 29 477 1 1 7 2 14 2 21 -1
97 -125 237 -385 121 -226 217 -360 373 -522 99 -103 123 -123 230 -191 134
-85 323 -109 465 -59 198 69 330 223 281 329 -14 33 -71 69 -117 75 -79 11
-130 -34 -245 -212 -59 -91 -65 -94 -169 -75 -68 12 -165 56 -248 113 -115 80
-303 314 -411 513 -17 33 -62 116 -100 186 -38 69 -69 128 -69 130 0 3 64 4
143 4 117 -1 156 3 223 21 233 64 397 191 512 394 133 235 146 565 32 816 -68
149 -202 278 -333 319 -72 22 -207 27 -286 9z m315 -170 c171 -87 256 -263
257 -530 1 -155 -13 -220 -77 -350 -115 -233 -344 -375 -611 -378 -159 -2
-232 30 -365 157 l-47 45 -13 225 c-17 286 -10 417 24 492 46 100 239 268 375
325 116 49 167 59 278 56 96 -2 105 -5 179 -42z m-993 -67 c4 -40 9 -289 13
-553 6 -436 -3 -917 -23 -1217 l-6 -98 -128 0 -128 0 -6 43 c-23 172 -49 813
-60 1493 l-6 360 143 21 c215 31 194 36 201 -49z m1657 -2109 c0 -42 -93 -133
-157 -153 -30 -9 -30 10 -2 67 36 71 66 97 116 97 24 0 43 -5 43 -11z"/>
<path d="M17555 3160 c-77 -5 -209 -14 -293 -21 -159 -12 -338 -7 -406 12 -21
6 -85 9 -141 7 -165 -5 -171 -17 -154 -325 6 -114 14 -577 18 -1028 6 -794 7
-821 26 -859 36 -72 60 -81 193 -79 377 8 1131 42 1149 52 33 17 39 50 14 74
-21 21 -30 22 -414 25 l-394 4 -6 187 c-4 102 -7 223 -7 268 l0 82 58 5 c31 3
89 11 127 17 39 6 128 13 200 15 155 5 200 21 200 69 0 44 -31 54 -135 44
-122 -12 -454 -38 -456 -36 -2 3 -32 669 -46 1017 -7 163 -9 302 -6 311 5 13
77 19 457 39 446 23 451 24 473 47 l22 24 -27 27 c-27 27 -29 27 -170 28 -78
1 -205 -2 -282 -6z m-652 -126 c16 -4 33 -16 42 -33 15 -29 30 -222 40 -516 3
-93 12 -307 20 -475 8 -168 17 -458 21 -646 l7 -340 -164 -21 c-90 -11 -165
-19 -167 -18 -2 2 -7 272 -13 601 -5 330 -13 790 -18 1024 -4 234 -6 429 -3
433 4 9 179 1 235 -9z"/>
<path d="M5701 3135 c-303 -66 -619 -324 -789 -644 -143 -268 -180 -597 -102
-893 28 -103 102 -274 163 -373 161 -262 278 -351 522 -400 170 -34 340 -20
520 42 288 99 393 196 476 441 42 122 57 201 65 333 11 200 14 198 -308 211
-286 12 -320 7 -402 -54 -120 -89 -127 -211 -16 -277 73 -44 123 -24 240 95
118 122 122 124 258 124 95 0 114 -3 119 -16 9 -23 -14 -236 -32 -309 -9 -33
-35 -101 -59 -150 -87 -183 -220 -273 -469 -320 -102 -19 -99 -20 -157 66
-119 175 -271 574 -303 796 -38 261 78 669 308 1088 65 118 80 135 125 135 80
0 216 -63 343 -159 67 -49 161 -177 210 -283 32 -72 44 -88 62 -88 33 0 65 40
65 83 0 95 -259 390 -421 480 -144 79 -276 102 -418 72z m-137 -336 c-213
-476 -259 -633 -258 -884 1 -125 5 -152 31 -245 68 -234 169 -490 257 -649 25
-46 46 -87 46 -92 0 -13 -26 -11 -121 7 -198 37 -308 114 -429 299 -176 271
-245 579 -195 869 17 97 79 269 127 355 48 85 142 213 202 274 67 69 202 169
281 210 57 29 136 58 143 52 2 -2 -36 -90 -84 -196z m456 -1069 c0 -21 -76
-91 -107 -99 -32 -9 -33 -8 -33 18 0 16 10 37 24 50 34 32 116 54 116 31z"/>
</g>
</svg>
