<?xml version="1.0" standalone="no"?>
<!DOCTYPE svg PUBLIC "-//W3C//DTD SVG 20010904//EN"
 "http://www.w3.org/TR/2001/REC-SVG-20010904/DTD/svg10.dtd">
<svg version="1.0" xmlns="http://www.w3.org/2000/svg"
 width="512.000000pt" height="512.000000pt" viewBox="0 0 512.000000 512.000000"
 preserveAspectRatio="xMidYMid meet">
<metadata>
Created by potrace 1.16, written by Peter Selinger 2001-2019
</metadata>
<g transform="translate(0.000000,512.000000) scale(0.100000,-0.100000)"
fill="#000000" stroke="none">
<path d="M1205 5114 c-11 -3 -56 -12 -100 -20 -470 -89 -876 -447 -1033 -909
-71 -209 -67 -109 -67 -1625 0 -1280 1 -1370 18 -1450 118 -553 534 -969 1087
-1087 80 -17 170 -18 1450 -18 1280 0 1370 1 1450 18 553 118 969 534 1087
1087 17 80 18 170 18 1450 0 1280 -1 1370 -18 1450 -104 489 -448 881 -912
1038 -209 71 -92 66 -1600 68 -748 1 -1369 0 -1380 -2z m2790 -331 c283 -85
502 -242 640 -458 107 -167 158 -319 175 -522 13 -156 13 -2330 0 -2486 -15
-179 -45 -283 -128 -440 -140 -267 -395 -464 -699 -541 -121 -31 -301 -36
-1423 -36 -1122 0 -1302 5 -1423 36 -400 101 -689 390 -804 804 -17 61 -18
144 -18 1420 0 1276 1 1359 18 1420 104 372 347 644 689 770 57 20 155 46 203
53 17 2 631 4 1365 3 1327 -2 1335 -2 1405 -23z"/>
<path d="M3866 4440 c-175 -56 -287 -209 -287 -393 -1 -241 177 -419 418 -418
186 0 338 113 394 290 100 323 -203 624 -525 521z m200 -324 c39 -39 45 -85
17 -126 -27 -39 -45 -49 -90 -50 -33 0 -48 6 -72 31 -68 68 -20 179 77 179 25
0 43 -9 68 -34z"/>
<path d="M2330 3946 c-583 -105 -1024 -530 -1147 -1106 -26 -121 -26 -439 0
-560 119 -556 541 -978 1097 -1097 121 -26 439 -26 560 0 556 119 978 541
1097 1097 14 66 18 130 18 280 0 215 -11 291 -67 455 -158 464 -551 813 -1038
920 -102 23 -417 29 -520 11z m427 -311 c445 -84 794 -433 878 -878 19 -102
19 -292 0 -394 -84 -445 -433 -794 -878 -878 -102 -19 -292 -19 -394 0 -445
84 -794 433 -878 878 -19 102 -19 292 0 394 84 442 430 790 871 877 95 19 303
19 401 1z"/>
</g>
</svg>
