<?xml version="1.0" standalone="no"?>
<!DOCTYPE svg PUBLIC "-//W3C//DTD SVG 20010904//EN"
 "http://www.w3.org/TR/2001/REC-SVG-20010904/DTD/svg10.dtd">
<svg version="1.0" xmlns="http://www.w3.org/2000/svg"
 width="512.000000pt" height="512.000000pt" viewBox="0 0 512.000000 512.000000"
 preserveAspectRatio="xMidYMid meet">
<metadata>
Created by potrace 1.16, written by Peter Selinger 2001-2019
</metadata>
<g transform="translate(0.000000,512.000000) scale(0.100000,-0.100000)"
fill="#000000" stroke="none">
<path d="M551 5080 c-263 -71 -464 -273 -531 -535 -25 -99 -27 -270 -4 -364
65 -262 267 -468 530 -542 61 -18 105 -23 194 -23 140 0 210 17 340 81 80 39
109 60 185 137 103 103 159 197 196 332 28 99 31 264 6 366 -61 250 -250 455
-492 535 -112 36 -314 43 -424 13z m374 -330 c171 -82 277 -277 246 -453 -33
-189 -175 -333 -362 -368 -179 -33 -374 71 -460 246 -33 67 -34 74 -34 185 0
109 2 118 32 180 54 110 149 194 263 232 41 14 78 17 150 15 84 -3 103 -7 165
-37z"/>
<path d="M3646 3610 c-161 -20 -301 -62 -441 -133 -82 -41 -183 -104 -222
-140 l-23 -20 0 96 0 97 -640 0 -640 0 0 -1745 0 -1745 670 0 670 0 0 979 c0
948 1 981 20 1042 36 117 136 216 256 254 155 49 347 -25 431 -166 65 -109 63
-73 63 -1141 l0 -968 665 0 666 0 -3 1257 -3 1258 -26 95 c-38 134 -81 242
-137 338 -189 323 -502 547 -874 622 -115 24 -326 33 -432 20z m406 -334 c182
-46 319 -121 450 -245 149 -141 246 -310 288 -499 19 -83 20 -139 20 -1144 l0
-1058 -355 0 -355 0 0 823 c-1 875 -2 904 -50 1030 -31 83 -111 197 -183 262
-77 70 -215 140 -317 161 -112 24 -261 15 -369 -21 -202 -68 -365 -231 -437
-436 l-29 -84 -3 -867 -3 -868 -359 0 -360 0 0 1435 0 1435 330 0 330 0 0
-215 0 -215 125 0 124 0 52 76 c157 233 404 398 664 443 33 6 71 13 85 15 64
12 258 -4 352 -28z"/>
<path d="M70 1765 l0 -1745 670 0 670 0 0 1745 0 1745 -670 0 -670 0 0 -1745z
m1030 0 l0 -1435 -360 0 -360 0 0 1435 0 1435 360 0 360 0 0 -1435z"/>
</g>
</svg>
