<?xml version="1.0" standalone="no"?>
<!DOCTYPE svg PUBLIC "-//W3C//DTD SVG 20010904//EN"
 "http://www.w3.org/TR/2001/REC-SVG-20010904/DTD/svg10.dtd">
<svg version="1.0" xmlns="http://www.w3.org/2000/svg"
 width="512.000000pt" height="512.000000pt" viewBox="0 0 512.000000 512.000000"
 preserveAspectRatio="xMidYMid meet">
<metadata>
Created by potrace 1.16, written by Peter Selinger 2001-2019
</metadata>
<g transform="translate(0.000000,512.000000) scale(0.100000,-0.100000)"
fill="#000000" stroke="none">
<path d="M301 4340 c-119 -43 -207 -123 -264 -239 l-32 -66 0 -1475 0 -1475
32 -66 c58 -119 148 -198 269 -239 58 -20 87 -20 2274 -18 l2215 3 70 34 c92
45 171 124 216 216 l34 70 0 1475 0 1475 -34 70 c-45 92 -124 171 -216 216
l-70 34 -2220 2 c-2171 2 -2221 2 -2274 -17z m3314 -1259 c-1066 -1065 -997
-1004 -1092 -986 -34 6 -146 114 -1018 986 l-980 979 2035 0 2035 0 -980 -979z
m-2673 -1163 l-642 -643 0 1285 0 1285 642 -643 643 -642 -643 -642z m3878
640 l0 -1283 -642 642 -643 643 640 640 c352 352 641 640 642 640 2 0 3 -577
3 -1282z m-2480 -725 c148 -70 290 -70 440 -1 57 27 93 58 300 269 l236 238
639 -639 640 -640 -2035 0 -2035 0 640 640 640 640 235 -238 c205 -208 243
-242 300 -269z"/>
</g>
</svg>
