<?xml version="1.0" standalone="no"?>
<!DOCTYPE svg PUBLIC "-//W3C//DTD SVG 20010904//EN"
 "http://www.w3.org/TR/2001/REC-SVG-20010904/DTD/svg10.dtd">
<svg version="1.0" xmlns="http://www.w3.org/2000/svg"
 width="512.000000pt" height="512.000000pt" viewBox="0 0 512.000000 512.000000"
 preserveAspectRatio="xMidYMid meet">
<metadata>
Created by potrace 1.16, written by Peter Selinger 2001-2019
</metadata>
<g transform="translate(0.000000,512.000000) scale(0.100000,-0.100000)"
fill="#000000" stroke="none">
<path d="M785 5095 c-124 -33 -211 -92 -341 -227 -194 -202 -341 -498 -412
-828 -24 -115 -26 -144 -27 -360 0 -208 3 -247 23 -345 94 -447 362 -923 819
-1458 154 -180 465 -508 616 -650 710 -667 1404 -1054 2127 -1187 166 -31 406
-38 541 -16 204 34 376 94 516 182 93 58 244 201 324 307 112 148 149 251 149
410 0 116 -23 196 -79 282 -24 37 -201 220 -453 471 -392 390 -417 413 -488
447 -127 60 -249 72 -384 37 -124 -31 -174 -66 -367 -257 l-175 -173 -160 95
c-279 167 -440 291 -655 505 -85 85 -193 202 -238 260 -93 117 -242 339 -319
474 l-51 90 173 176 c148 151 178 187 210 251 91 185 83 394 -23 554 -24 37
-200 219 -453 471 -442 439 -460 454 -593 489 -72 18 -212 19 -280 0z m235
-336 c53 -27 816 -796 835 -841 8 -21 15 -57 15 -80 -1 -81 -29 -121 -235
-328 -122 -123 -200 -209 -209 -232 -19 -44 -21 -151 -4 -199 32 -93 237 -426
378 -614 281 -375 621 -674 1067 -938 212 -126 227 -132 323 -132 64 0 94 5
120 19 19 10 123 106 230 212 122 121 209 199 232 208 50 21 124 20 173 -3 27
-13 173 -152 437 -417 354 -356 398 -404 408 -443 23 -86 -12 -175 -118 -301
-39 -47 -97 -107 -129 -133 -170 -139 -465 -220 -718 -197 -457 42 -936 229
-1425 555 -341 228 -668 512 -1015 881 -429 457 -687 800 -858 1142 -122 245
-176 424 -197 655 -40 427 160 937 453 1161 72 55 161 64 237 25z"/>
<path d="M3042 4634 c-51 -26 -76 -69 -80 -139 -2 -47 1 -67 17 -92 31 -49 63
-65 189 -91 386 -79 749 -337 967 -686 96 -155 161 -319 195 -499 28 -145 67
-187 172 -187 62 0 108 24 139 72 58 92 -30 442 -178 706 -95 168 -179 278
-318 417 -141 141 -236 214 -404 310 -256 146 -601 239 -699 189z"/>
<path d="M2917 3976 c-72 -26 -107 -78 -107 -159 0 -85 58 -140 171 -163 96
-20 272 -105 369 -181 168 -131 317 -372 344 -555 13 -90 77 -148 163 -148 91
0 163 71 163 160 0 212 -196 574 -406 754 -231 197 -568 338 -697 292z"/>
</g>
</svg>
